<svg xmlns="http://www.w3.org/2000/svg" viewBox="0 0 64 64">
  <defs>
    <linearGradient id="tile" x1="9" y1="7" x2="55" y2="58" gradientUnits="userSpaceOnUse">
      <stop stop-color="#10b981"/>
      <stop offset=".55" stop-color="#059669"/>
      <stop offset="1" stop-color="#0891b2"/>
    </linearGradient>
    <radialGradient id="ball-glow" cx="0" cy="0" r="1" gradientTransform="matrix(15 0 0 15 46 18)" gradientUnits="userSpaceOnUse">
      <stop stop-color="#facc15" stop-opacity=".55"/>
      <stop offset="1" stop-color="#facc15" stop-opacity="0"/>
    </radialGradient>
    <filter id="soft-shadow" x="4" y="4" width="56" height="56" color-interpolation-filters="sRGB" filterUnits="userSpaceOnUse">
      <feDropShadow dx="0" dy="2.5" stdDeviation="2" flood-color="#053c32" flood-opacity=".3"/>
    </filter>
  </defs>
  <rect width="64" height="64" rx="14" fill="url(#tile)"/>
  <path d="M9 48c11-2 18-8 22-18 5-12 13-18 24-18" fill="none" stroke="#ffffff" stroke-linecap="round" stroke-opacity=".14" stroke-width="7"/>
  <circle cx="44" cy="44" r="8" fill="#facc15" opacity=".25"/>
  <circle cx="44" cy="44" r="12" fill="url(#ball-glow)"/>
  <g filter="url(#soft-shadow)" transform="translate(8 8) scale(2)">
    <circle cx="18" cy="18" r="4" fill="none" stroke="#ffffff" stroke-linecap="round" stroke-linejoin="round" stroke-width="2.35"/>
    <path d="m4 8 10 10" fill="none" stroke="#ffffff" stroke-linecap="round" stroke-linejoin="round" stroke-width="2.35"/>
    <path d="M20.8 15.2c1.9-3.4 1.4-7.7-1.4-10.6-3.5-3.5-9.1-3.5-12.5 0-4.7 4.7-5.1 6.9-1.4 11.1l-2.9 2.9c-.8.8-.8 2 0 2.8.8.8 2 .8 2.8 0l2.9-2.9c2.6 2.3 4.5 3 6.6 2.1" fill="none" stroke="#ffffff" stroke-linecap="round" stroke-linejoin="round" stroke-width="2.35"/>
  </g>
</svg>
